<svg width="12.000000" height="12.125488" viewBox="0 0 12 12.1255" fill="none" xmlns="http://www.w3.org/2000/svg" xmlns:xlink="http://www.w3.org/1999/xlink">
	<desc>
			Created with Pixso.
	</desc>
	<defs/>
	<path id="Icon color" d="M6 0C2.68628 0 0 2.71436 0 6.06274C0 9.41113 2.68628 12.1255 6 12.1255C9.31372 12.1255 12 9.41113 12 6.06274C12 4.45483 11.3679 2.91272 10.2427 1.77576C9.11743 0.638794 7.59131 0 6 0ZM7.94495 7.40271C7.94495 7.32227 7.91199 7.24548 7.854 7.19043L6.74402 6.06274L7.854 4.93518C7.91199 4.88013 7.94495 4.80334 7.94495 4.7229C7.94495 4.64258 7.91199 4.5658 7.854 4.51074L7.53601 4.18945C7.48157 4.13086 7.40552 4.09753 7.32605 4.09753C7.24646 4.09753 7.17041 4.13086 7.11597 4.18945L6 5.31104L4.88403 4.18945C4.82959 4.13086 4.75354 4.09753 4.67407 4.09753C4.59448 4.09753 4.51843 4.13086 4.46399 4.18945L4.146 4.51074C4.08801 4.5658 4.05518 4.64258 4.05518 4.7229C4.05518 4.80334 4.08801 4.88013 4.146 4.93518L5.25598 6.06274L4.146 7.19043C4.08801 7.24548 4.05518 7.32227 4.05518 7.40271C4.05518 7.48303 4.08801 7.55981 4.146 7.61487L4.46399 7.93616C4.51843 7.99475 4.59448 8.02808 4.67407 8.02808C4.75354 8.02808 4.82959 7.99475 4.88403 7.93616L6 6.81458L7.11597 7.93616C7.17041 7.99475 7.24646 8.02808 7.32605 8.02808C7.40552 8.02808 7.48157 7.99475 7.53601 7.93616L7.854 7.61487C7.91199 7.55981 7.94495 7.48303 7.94495 7.40271Z" clip-rule="evenodd" fill="#D8D8D8" fill-opacity="1.000000" fill-rule="evenodd"/>
</svg>
