<svg width="18.530121" height="18.000000" viewBox="0 0 18.5301 18" fill="none" xmlns="http://www.w3.org/2000/svg" xmlns:xlink="http://www.w3.org/1999/xlink">
	<desc>
			Created with Pixso.
	</desc>
	<defs/>
	<mask id="mask_1_110" fill="white">
		<path id="Icon color" d="M0 2.11768C0 0.94812 0.94809 0 2.11765 0C2.67929 0 3.21793 0.223145 3.61505 0.620239C4.01218 1.01733 4.23529 1.55603 4.23529 2.11768C4.23529 3.28723 3.2872 4.23535 2.11765 4.23535C0.94809 4.23535 0 3.28723 0 2.11768ZM18.5295 11.0223C18.566 8.72986 17.002 6.72095 14.7707 6.19409C13.2753 5.87207 11.7167 6.29431 10.5883 7.32703L10.5883 6.88232C10.5883 6.58997 10.3513 6.35291 10.0589 6.35291L7.41183 6.35291C7.11945 6.35291 6.88242 6.58997 6.88242 6.88232L6.88242 17.4706C6.88242 17.7629 7.11945 18 7.41183 18L10.0589 18C10.3513 18 10.5883 17.7629 10.5883 17.4706L10.5883 11.4988C10.5622 10.4354 11.3033 9.50671 12.3459 9.29639C12.9668 9.18921 13.6031 9.36414 14.0821 9.77344C14.561 10.1827 14.8328 10.7841 14.8236 11.4141L14.8236 17.4706C14.8236 17.7629 15.0606 18 15.353 18L18.0001 18C18.2924 18 18.5295 17.7629 18.5295 17.4706L18.5295 11.0223ZM4.23529 6.88232L4.23529 17.4706C4.23529 17.7629 3.99826 18 3.70587 18L1.05881 18C0.766418 18 0.529388 17.7629 0.529388 17.4706L0.529388 6.88232C0.529388 6.58997 0.766418 6.35291 1.05881 6.35291L3.70587 6.35291C3.99826 6.35291 4.23529 6.58997 4.23529 6.88232Z" clip-rule="evenodd" fill="" fill-opacity="1.000000" fill-rule="evenodd"/>
	</mask>
	<path id="Icon color" d="M0 2.11768C0 0.94812 0.94809 0 2.11765 0C2.67929 0 3.21793 0.223145 3.61505 0.620239C4.01218 1.01733 4.23529 1.55603 4.23529 2.11768C4.23529 3.28723 3.2872 4.23535 2.11765 4.23535C0.94809 4.23535 0 3.28723 0 2.11768ZM18.5295 11.0223C18.566 8.72986 17.002 6.72095 14.7707 6.19409C13.2753 5.87207 11.7167 6.29431 10.5883 7.32703L10.5883 6.88232C10.5883 6.58997 10.3513 6.35291 10.0589 6.35291L7.41183 6.35291C7.11945 6.35291 6.88242 6.58997 6.88242 6.88232L6.88242 17.4706C6.88242 17.7629 7.11945 18 7.41183 18L10.0589 18C10.3513 18 10.5883 17.7629 10.5883 17.4706L10.5883 11.4988C10.5622 10.4354 11.3033 9.50671 12.3459 9.29639C12.9668 9.18921 13.6031 9.36414 14.0821 9.77344C14.561 10.1827 14.8328 10.7841 14.8236 11.4141L14.8236 17.4706C14.8236 17.7629 15.0606 18 15.353 18L18.0001 18C18.2924 18 18.5295 17.7629 18.5295 17.4706L18.5295 11.0223ZM4.23529 6.88232L4.23529 17.4706C4.23529 17.7629 3.99826 18 3.70587 18L1.05881 18C0.766418 18 0.529388 17.7629 0.529388 17.4706L0.529388 6.88232C0.529388 6.58997 0.766418 6.35291 1.05881 6.35291L3.70587 6.35291C3.99826 6.35291 4.23529 6.58997 4.23529 6.88232Z" clip-rule="evenodd" fill="#707070" fill-opacity="1.000000" fill-rule="evenodd" mask="url(#mask_1_110)"/>
	<path id="Icon color" d="" fill="#979797" fill-opacity="0.000000" fill-rule="nonzero"/>
</svg>
